<?xml version="1.0" encoding="utf-8"?>
<!-- Generator: Adobe Illustrator 27.0.0, SVG Export Plug-In . SVG Version: 6.00 Build 0)  -->
<svg version="1.1" id="图层_1" xmlns="http://www.w3.org/2000/svg" xmlns:xlink="http://www.w3.org/1999/xlink" x="0px" y="0px"
	 viewBox="0 0 64 64" style="enable-background:new 0 0 64 64;" xml:space="preserve">
<style type="text/css">
	.st0{fill:#25B7D3;}
	.st1{fill:#FFFFFF;}
</style>
<path class="st0" d="M56,32C56,18.7,45.3,8,32,8S8,18.7,8,32s10.7,24,24,24S56,45.3,56,32z"/>
<path class="st1" d="M38,42c-0.1-0.2-0.4-0.3-0.6-0.2c-2.2,1-4.7,2.1-5.2,2.2c0,0,0,0-0.1-0.1c-0.1-0.1-0.1-0.2-0.1-0.4
	c0-1.2,0.9-5,2.8-11.2c1.6-5.2,1.7-6.3,1.7-6.7c0-0.6-0.2-1-0.6-1.3c-0.4-0.3-0.9-0.5-1.6-0.5c-1.1,0-2.4,0.4-3.9,1.3
	c-1.5,0.8-3.2,2.3-5,4.2c-0.1,0.2-0.2,0.4,0,0.6s0.3,0.2,0.5,0.2c0.6-0.3,3.8-1.6,4.3-1.8c0.4-0.2,0.7-0.4,1-0.4c0,0,0,0,0,0
	c0,0,0,0,0,0.1c0,0.3-0.1,0.6-0.2,1c-2.7,8.7-4,14.1-4,16.4c0,0.8,0.2,1.4,0.7,1.9c0.4,0.5,1.1,0.7,1.8,0.7c0.8,0,1.8-0.3,3-1
	c1.2-0.7,2.9-2.1,5.4-4.4C38.1,42.4,38.1,42.1,38,42z M37.9,16.7c-0.4-0.4-1-0.7-1.7-0.7c-0.8,0-1.6,0.3-2.2,1
	c-0.6,0.6-0.9,1.4-0.9,2.3c0,0.7,0.2,1.3,0.7,1.8c0.4,0.5,1,0.7,1.7,0.7c0.8,0,1.5-0.3,2.1-1c0.6-0.7,0.9-1.5,0.9-2.4
	C38.6,17.7,38.4,17.1,37.9,16.7z"/>
</svg>
