<?xml version="1.0" encoding="UTF-8"?>
<svg id="_图层_1" data-name="图层_1" xmlns="http://www.w3.org/2000/svg" version="1.1" xmlns:xlink="http://www.w3.org/1999/xlink" viewBox="0 0 725.67 725.67">
  <!-- Generator: Adobe Illustrator 29.4.0, SVG Export Plug-In . SVG Version: 2.1.0 Build 152)  -->
  <defs>
    <linearGradient id="_未命名的渐变" data-name="未命名的渐变" x1="1412.86" y1="-1572.43" x2="581.49" y2="37.5" gradientTransform="translate(45.14 184.68) scale(.31 -.31)" gradientUnits="userSpaceOnUse">
      <stop offset="0" stop-color="#0090ff"/>
      <stop offset="1" stop-color="#0afdf9"/>
    </linearGradient>
    <linearGradient id="_未命名的渐变_2" data-name="未命名的渐变 2" x1="1290.81" y1="-1256.71" x2="765.26" y2="-330.88" gradientTransform="translate(45.14 184.68) scale(.31 -.31)" gradientUnits="userSpaceOnUse">
      <stop offset="0" stop-color="#00a9ff"/>
      <stop offset="1" stop-color="#00f3f9"/>
    </linearGradient>
  </defs>
  <rect width="725.67" height="725.67" fill="none"/>
  <path d="M388.18,112.71c49.07-1.71,97.23,13.49,136.43,43.06,40.37,30.36,68.35,74.34,78.73,123.77,1.1,5.26,1.7,10.61,2.43,15.93,26.28,8.17,50.24,22.48,69.9,41.73,29.16,29.28,45.55,68.9,45.6,110.21.05,23.12-4.5,44.28-13.52,65.54-3.55,8.36-7.58,16.47-12.69,24-8.26,12.15-19.96,24.75-30.39,35.19-16.8,16.82-45.3,29.74-68.38,34.62-19.54,4.13-39.53,3.99-59.41,3.86-11.4-.09-22.8-.1-34.2-.03l-163.8-.02h-100.54c-49.66.06-88.39,3.94-134.59-19.81-14.07-7.16-27.12-16.16-38.8-26.78-21.2-19.62-35.06-40.55-46.25-67.02-2.82-6.66-5.65-13.23-7.51-20.23-3.59-13.49-5.1-27.48-5.59-41.4-1.65-46.7,17.22-95.29,49.03-129.31,28.37-30.75,66.41-50.87,107.8-57.01,9.21-1.36,18.47-1.76,27.77-2.08,8.32-21.29,23.39-43.45,38.67-60.29,41.99-46.27,97.19-70.94,159.31-73.92Z" fill="url(#_未命名的渐变)"/>
  <path d="M383.78,150.17c3.5-.19,7-.29,10.5-.29,75.57-.31,145.44,48.64,167.81,121.43,2.25,7.32,3.93,14.92,5.29,22.46,1.69,9.38.77,21.12,7.06,28.92,6.37,7.91,19.13,9.19,28.32,11.84,4.12,1.19,8.17,2.79,12.07,4.58,12.26,5.67,23.42,13.47,32.95,23.04,22.84,22.66,35.41,51.64,35.46,83.91.01,10.67-.77,21.55-3.19,31.96-1.21,5.23-3.33,10.34-5.29,15.33-6.67,17.03-14.67,31.67-27.69,44.69-14.98,15.01-33.71,25.73-54.24,31.07-20.39,5.13-41.9,4.35-62.76,4.32l-56.24-.22-129.79.98-101.93.04c-15.34.21-30.68.25-46.02.09-12.58-.18-25.24-.27-37.6-2.91-23.61-5.03-45.61-15.8-64.07-31.35-29.41-25.06-47.51-60.89-50.23-99.43-2.62-38.64,10.16-76.74,35.57-105.97,23.74-27.31,56.72-44.91,92.63-49.4,8.15-1.04,16.34-.46,24.52-1.07,26.25-1.95,28.56-22.21,38.79-41.6,5.11-9.7,11.8-18.93,18.96-27.22,33.24-38.49,78.37-61.49,129.13-65.2Z" fill="#fff"/>
  <path d="M256.41,311.31c22.23-.58,44.59.09,66.84.09l149.18-.28c12.01-.09,22.33.75,31.33,9.73,4.55,4.54,7.31,10.18,8.53,16.46,1.49,7.66,1.21,15.72,1.21,23.48l-.02,25.03v87.18c0,12.69,1.29,44.41-2.14,54.83-1.37,4.17-4.32,8.22-7.43,11.28-10.08,9.94-21.97,9.58-35.09,9.5l-160.75-.03-40.8.07c-8.96.09-18.34.95-27.23-.28-6.57-.84-12.68-3.8-17.42-8.42-5.06-4.89-7.77-10.88-8.96-17.76-1.68-9.72-1.09-20.14-1-29.98l.44-38.24c.38-32.62.28-65.25-.31-97.87-.18-12.13-.08-25.28,8.97-34.48,9.7-9.85,21.76-10.18,34.64-10.32Z" fill="url(#_未命名的渐变_2)"/>
  <path d="M246.01,344.58l234.26-.05c-.47,13.18-.18,26.34-.18,39.53-.12,17.37-.08,34.73.13,52.1.26,16.06,1.08,32.16.43,48.22-.1,2.5-.14,5.54-1.35,7.77l-.76.22c-5.37-1.86-28.48-27.87-34.14-33.55-6.33-6.35-13.35-13.48-21.06-18.07-2.81-.22-4.85.78-7.11,2.31-4.49,3.03-7.97,7.13-11.69,11-7.56,7.85-20.77,22.4-29.29,28.04-13.92-10.49-25.03-23.98-37.17-36.35-3.66-3.73-10.73-11.6-16.13-11.49-7.56.15-17.68,11.63-22.64,17.04-10.07,10.98-20.94,21.37-31.46,31.93-3.4,3.42-6.87,6.78-10.21,10.25-2.25,2.33-4.39,4.87-6.8,7.03-1.07.96-2.67,2.35-4.12,2.41-.66-1.39-.63-3.09-.68-4.61-.59-16.6.03-33.44.03-50.06l-.04-103.66Z" fill="#fff"/>
</svg>