<?xml version="1.0" encoding="utf-8"?>
<!-- Generator: Adobe Illustrator 27.0.0, SVG Export Plug-In . SVG Version: 6.00 Build 0)  -->
<svg version="1.1" id="Layer_1" xmlns="http://www.w3.org/2000/svg" xmlns:xlink="http://www.w3.org/1999/xlink" x="0px" y="0px"
	 viewBox="0 0 64 64" style="enable-background:new 0 0 64 64;" xml:space="preserve">
<style type="text/css">
	.st0{fill:#EFCC00;}
</style>
<path class="st0" d="M55.7,50l-22-38.1c-0.6-1-1.8-1.3-2.7-0.7c-0.3,0.2-0.5,0.4-0.7,0.7L8.3,50C7.7,51,8,52.2,9,52.8
	c0.3,0.2,0.6,0.3,1,0.3h44c1.1,0,2-0.9,2-2C56,50.7,55.9,50.3,55.7,50z M34.6,25.5l-0.7,15h-3.8l-0.8-15H34.6z M32,48.2
	c-1.6,0.1-2.9-1.2-3-2.8c0-0.1,0-0.2,0-0.2c0-1.7,1.3-3,3-3c1.7,0,3,1.3,3,3S33.7,48.2,32,48.2z"/>
</svg>
